<svg width="75" height="75" viewBox="0 0 75 75" fill="none" xmlns="http://www.w3.org/2000/svg">
<path d="M37.5 15.624C25.4678 15.624 15.624 25.4677 15.624 37.5C15.624 49.5323 25.4678 59.376 37.5 59.376C49.5323 59.376 59.376 49.5323 59.376 37.5C59.376 25.4677 49.5323 15.624 37.5 15.624ZM24.999 31.251C24.999 29.5312 26.4053 28.125 28.125 28.125C29.8448 28.125 31.251 29.5312 31.251 31.251C31.251 32.9707 29.8448 34.377 28.125 34.377C26.4053 34.3741 24.999 32.9678 24.999 31.251ZM47.9678 47.0303C45.1553 49.8428 41.25 51.4043 37.5 51.4043C33.75 51.4043 29.8448 49.998 27.0323 47.0303C26.4083 46.4062 26.4083 45.4688 27.0323 44.8418C27.6563 44.2177 28.5938 44.2177 29.2208 44.8418C33.753 49.374 41.253 49.374 45.7823 44.8418C46.4063 44.2177 47.3438 44.2177 47.9708 44.8418C48.5948 45.4687 48.5948 46.4062 47.9679 47.0303H47.9678ZM46.875 34.374C45.1553 34.374 43.749 32.9678 43.749 31.248C43.749 29.5282 45.1553 28.122 46.875 28.122C48.5948 28.122 50.001 29.5282 50.001 31.248C50.001 32.9678 48.5948 34.374 46.875 34.374Z" fill="white"/>
</svg>
