<svg width="57" height="57" viewBox="0 0 57 57" fill="none" xmlns="http://www.w3.org/2000/svg">
<path d="M28.5033 13.1458C27.8532 13.1458 27.2298 12.8875 26.7701 12.4279C26.3105 11.9682 26.0522 11.3448 26.0522 10.6948V5.34708C26.0522 4.69703 26.3105 4.0736 26.7701 3.61394C27.2298 3.15429 27.8532 2.89606 28.5033 2.89606C29.1533 2.89606 29.7767 3.15429 30.2364 3.61394C30.6961 4.0736 30.9543 4.69703 30.9543 5.34708V10.6948C30.9543 11.3448 30.6961 11.9682 30.2364 12.4279C29.7767 12.8875 29.1533 13.1458 28.5033 13.1458Z" fill="white"/>
<path d="M28.5033 54.1128C27.8532 54.1128 27.2298 53.8546 26.7701 53.3949C26.3105 52.9353 26.0522 52.3119 26.0522 51.6618V46.3141C26.0522 45.6641 26.3105 45.0406 26.7701 44.581C27.2298 44.1213 27.8532 43.8631 28.5033 43.8631C29.1533 43.8631 29.7767 44.1213 30.2364 44.581C30.6961 45.0406 30.9543 45.6641 30.9543 46.3141V51.6618C30.9543 52.3119 30.6961 52.9353 30.2364 53.3949C29.7767 53.8546 29.1533 54.1128 28.5033 54.1128Z" fill="white"/>
<path d="M41.0999 18.3601C40.6152 18.36 40.1415 18.2162 39.7385 17.947C39.3355 17.6777 39.0214 17.2951 38.8359 16.8473C38.6503 16.3996 38.6017 15.9069 38.6961 15.4315C38.7906 14.9562 39.0238 14.5194 39.3663 14.1766L43.1476 10.3953C43.6093 9.94569 44.2295 9.69594 44.8739 9.70019C45.5183 9.70443 46.1352 9.96232 46.5909 10.418C47.0466 10.8737 47.3045 11.4906 47.3087 12.135C47.313 12.7795 47.0632 13.3996 46.6136 13.8613L42.8323 17.6426C42.605 17.8704 42.335 18.051 42.0377 18.1741C41.7404 18.2973 41.4217 18.3604 41.0999 18.3601V18.3601Z" fill="white"/>
<path d="M12.1319 47.3323C11.6471 47.3322 11.1732 47.1884 10.7702 46.919C10.3671 46.6496 10.053 46.2667 9.86756 45.8188C9.68212 45.3709 9.63367 44.8781 9.72835 44.4026C9.82302 43.9271 10.0566 43.4904 10.3994 43.1477L14.1807 39.3665C14.4072 39.1339 14.6776 38.9487 14.9762 38.8216C15.2749 38.6944 15.5958 38.6278 15.9204 38.6257C16.245 38.6235 16.5667 38.6859 16.867 38.8091C17.1673 38.9323 17.4401 39.114 17.6696 39.3435C17.8992 39.573 18.0808 39.8458 18.204 40.1461C18.3273 40.4464 18.3896 40.7682 18.3875 41.0928C18.3853 41.4174 18.3188 41.7383 18.1916 42.0369C18.0644 42.3356 17.8792 42.606 17.6467 42.8324L13.8654 46.6137C13.638 46.8418 13.3678 47.0227 13.0704 47.146C12.7729 47.2693 12.4539 47.3326 12.1319 47.3323V47.3323Z" fill="white"/>
<path d="M51.6654 30.9517H46.3177C45.6677 30.9517 45.0442 30.6934 44.5846 30.2338C44.1249 29.7741 43.8667 29.1507 43.8667 28.5006C43.8667 27.8506 44.1249 27.2272 44.5846 26.7675C45.0442 26.3079 45.6677 26.0496 46.3177 26.0496H51.6654C52.3155 26.0496 52.9389 26.3079 53.3985 26.7675C53.8582 27.2272 54.1164 27.8506 54.1164 28.5006C54.1164 29.1507 53.8582 29.7741 53.3985 30.2338C52.9389 30.6934 52.3155 30.9517 51.6654 30.9517Z" fill="white"/>
<path d="M10.6967 30.9517H5.34897C4.69892 30.9517 4.07549 30.6934 3.61584 30.2338C3.15618 29.7741 2.89795 29.1507 2.89795 28.5006C2.89795 27.8506 3.15618 27.2272 3.61584 26.7675C4.07549 26.3079 4.69892 26.0496 5.34897 26.0496H10.6967C11.3467 26.0496 11.9701 26.3079 12.4298 26.7675C12.8894 27.2272 13.1477 27.8506 13.1477 28.5006C13.1477 29.1507 12.8894 29.7741 12.4298 30.2338C11.9701 30.6934 11.3467 30.9517 10.6967 30.9517Z" fill="white"/>
<path d="M44.8826 47.3318C44.5606 47.3321 44.2416 47.2688 43.9441 47.1455C43.6466 47.0222 43.3764 46.8413 43.1491 46.6132L39.3678 42.832C38.9182 42.3703 38.6684 41.7501 38.6727 41.1057C38.6769 40.4612 38.9348 39.8444 39.3905 39.3887C39.8462 38.933 40.463 38.6751 41.1075 38.6708C41.7519 38.6666 42.3721 38.9163 42.8338 39.366L46.615 43.1472C46.9579 43.49 47.1915 43.9267 47.2861 44.4021C47.3808 44.8776 47.3324 45.3704 47.1469 45.8183C46.9615 46.2663 46.6474 46.6491 46.2443 46.9185C45.8413 47.1879 45.3674 47.3317 44.8826 47.3318V47.3318Z" fill="white"/>
<path d="M15.9118 18.3601C15.59 18.3607 15.2712 18.2976 14.9738 18.1745C14.6765 18.0513 14.4065 17.8706 14.1793 17.6426L10.3981 13.8613C9.94843 13.3996 9.69869 12.7795 9.70293 12.135C9.70718 11.4906 9.96507 10.8737 10.4208 10.418C10.8765 9.96232 11.4933 9.70443 12.1378 9.70019C12.7822 9.69594 13.4024 9.94569 13.8641 10.3953L17.6453 14.1766C17.9879 14.5194 18.2211 14.9562 18.3155 15.4315C18.41 15.9069 18.3613 16.3996 18.1758 16.8473C17.9903 17.2951 17.6761 17.6777 17.2732 17.947C16.8702 18.2162 16.3964 18.36 15.9118 18.3601V18.3601Z" fill="white"/>
<path d="M28.5036 39.8588C26.2574 39.8588 24.0616 39.1927 22.1939 37.9448C20.3263 36.6968 18.8706 34.9231 18.011 32.8479C17.1514 30.7726 16.9265 28.4891 17.3647 26.286C17.8029 24.083 18.8846 22.0593 20.4729 20.471C22.0612 18.8827 24.0849 17.801 26.2879 17.3628C28.491 16.9246 30.7745 17.1495 32.8497 18.0091C34.925 18.8687 36.6987 20.3244 37.9467 22.192C39.1946 24.0597 39.8607 26.2555 39.8607 28.5017C39.8571 31.5127 38.6594 34.3994 36.5303 36.5285C34.4012 38.6576 31.5146 39.8552 28.5036 39.8588V39.8588Z" fill="white"/>
</svg>
