<svg width="57" height="57" viewBox="0 0 57 57" fill="none" xmlns="http://www.w3.org/2000/svg">
<path d="M54.625 22.5625C54.62 26.6552 52.9919 30.5789 50.0979 33.4729C47.2039 36.3669 43.2803 37.995 39.1875 38H10.4833L18.3042 45.8209C18.531 46.04 18.7119 46.302 18.8364 46.5918C18.9609 46.8815 19.0264 47.1932 19.0291 47.5085C19.0319 47.8239 18.9718 48.1366 18.8524 48.4285C18.7329 48.7204 18.5566 48.9856 18.3336 49.2086C18.1106 49.4316 17.8454 49.6079 17.5536 49.7273C17.2617 49.8467 16.9489 49.9068 16.6336 49.9041C16.3182 49.9014 16.0066 49.8358 15.7168 49.7114C15.4271 49.5869 15.165 49.406 14.9459 49.1791L3.07091 37.3041C2.84974 37.0835 2.67426 36.8214 2.55453 36.5329C2.4348 36.2443 2.37317 35.935 2.37317 35.6226C2.37317 35.3102 2.4348 35.0009 2.55453 34.7124C2.67426 34.4238 2.84974 34.1617 3.07091 33.9411L14.9459 22.0661C15.3938 21.6335 15.9938 21.3941 16.6165 21.3995C17.2392 21.4049 17.8349 21.6547 18.2752 22.0951C18.7156 22.5354 18.9654 23.1311 18.9708 23.7538C18.9762 24.3765 18.7368 24.9764 18.3042 25.4244L10.4833 33.25H39.1875C42.022 33.25 44.7404 32.124 46.7447 30.1197C48.749 28.1154 49.875 25.397 49.875 22.5625C49.875 19.728 48.749 17.0096 46.7447 15.0053C44.7404 13.001 42.022 11.875 39.1875 11.875H28.5C27.8702 11.875 27.2661 11.6248 26.8207 11.1794C26.3753 10.734 26.125 10.1299 26.125 9.5C26.125 8.87011 26.3753 8.26602 26.8207 7.82062C27.2661 7.37522 27.8702 7.125 28.5 7.125H39.1875C43.2803 7.13003 47.2039 8.75809 50.0979 11.6521C52.9919 14.5461 54.62 18.4698 54.625 22.5625V22.5625Z" fill="white"/>
</svg>
